{"title":"American.Hustle.2013.BRRip.XviD.AC3-TODE","uid":9678040,"size":1993491191,"categoryP":"video","categoryS":"movies","magnet":"?xt=urn:btih:080b9024382bace919c9e470325a7f73050b3ada&amp;dn=American.Hustle.2013.BRRip.XviD.AC3-TODE&amp;tr=udp%3A%2F%2Ftracker.openbittorrent.com%3A80&amp;tr=udp%3A%2F%2Fopen.demonii.com%3A1337&amp;tr=udp%3A%2F%2Ftracker.coppersurfer.tk%3A6969&amp;tr=udp%3A%2F%2Fexodus.desync.com%3A6969","seeders":2,"leechers":0,"uploader":"xxxlavalxxx","files":3,"time":1393602224,"description":"\n &lt;a href=&quot;\nhttp://www.imdb.com/title/tt1800241/&quot; rel=&quot;nofollow&quot; target=&quot;_NEW&quot;&gt;\nhttp://www.imdb.com/title/tt1800241/&lt;/a&gt;\n\n\nA con man, Irving Rosenfeld, along with his seductive partner Sydney Prosser, is forced to work for a wild FBI agent, Richie DiMaso, who pushes them into a world of Jersey powerbrokers and mafia.\n\nDirector: David O. Russell\nWriters: Eric Warren Singer, David O. Russell\nStars: Christian Bale, Amy Adams, Bradley Cooper \nGenres: Crime | Drama\nCountry: USA\nLanguage: English | Arabic\n\n\nThanks: SPARKS\n\n\nFormat                                   : AVI\nFormat/Info                              : Audio Video Interleave\nFile size                                : 1.86 GiB\nDuration                                 : 2h 18mn\nOverall bit rate                         : 1 925 Kbps\n\nVideo\nID                                       : 0\nFormat                                   : MPEG-4 Visual\nFormat profile                           : Advanced Simple@L5\nFormat settings, BVOP                    : 2\nFormat settings, QPel                    : No\nFormat settings, GMC                     : No warppoints\nFormat settings, Matrix                  : Default (H.263)\nCodec ID                                 : XVID\nCodec ID/Hint                            : XviD\nDuration                                 : 2h 18mn\nBit rate                                 : 1 277 Kbps\nWidth                                    : 720 pixels\nHeight                                   : 304 pixels\nDisplay aspect ratio                     : 2.35:1\nFrame rate                               : 23.976 fps\nColor space                              : YUV\nChroma subsampling                       : 4:2:0\nBit depth                                : 8 bits\nScan type                                : Progressive\nCompression mode                         : Lossy\nBits/(Pixel*Frame)                       : 0.243\nStream size                              : 1.23 GiB (66%)\nWriting library                          : XviD 1.2.1 (UTC 2008-12-04)\n\nAudio\nID                                       : 1\nFormat                                   : AC-3\nFormat/Info                              : Audio Coding 3\nMode extension                           : CM (complete main)\nFormat settings, Endianness              : Big\nCodec ID                                 : 2000\nDuration                                 : 2h 18mn\nBit rate mode                            : Constant\nBit rate                                 : 640 Kbps\nChannel(s)                               : 6 channels\nChannel positions                        : Front: L C R, Side: L R, LFE\nSampling rate                            : 48.0 KHz\nBit depth                                : 16 bits\nCompression mode                         : Lossy\nStream size                              : 632 MiB (33%)\nAlignment                                : Aligned on interleaves\nInterleave, duration                     : 64 ms (1.53 video frames)\nInterleave, preload duration             : 192 ms\nTitle                                    : T2_Audio - English\n\n\n\nscreens\n &lt;a href=&quot;\nhttp://i.imgur.com/aShf1cl.jpg&quot; rel=&quot;nofollow&quot; target=&quot;_NEW&quot;&gt;\nhttp://i.imgur.com/aShf1cl.jpg&lt;/a&gt; &lt;a href=&quot;\nhttp://i.imgur.com/XEl917B.jpg&quot; rel=&quot;nofollow&quot; target=&quot;_NEW&quot;&gt;\nhttp://i.imgur.com/XEl917B.jpg&lt;/a&gt; &lt;a href=&quot;\nhttp://i.imgur.com/FPSVL5b.jpg&quot; rel=&quot;nofollow&quot; target=&quot;_NEW&quot;&gt;\nhttp://i.imgur.com/FPSVL5b.jpg&lt;/a&gt; &lt;a href=&quot;\nhttp://i.imgur.com/yklN2AY.jpg&quot; rel=&quot;nofollow&quot; target=&quot;_NEW&quot;&gt;\nhttp://i.imgur.com/yklN2AY.jpg&lt;/a&gt; &lt;a href=&quot;\nhttp://i.imgur.com/V7hNGwo.jpg&quot; rel=&quot;nofollow&quot; target=&quot;_NEW&quot;&gt;\nhttp://i.imgur.com/V7hNGwo.jpg&lt;/a&gt; &lt;a href=&quot;\nhttp://i.imgur.com/lMfWtbv.jpg&quot; rel=&quot;nofollow&quot; target=&quot;_NEW&quot;&gt;\nhttp://i.imgur.com/lMfWtbv.jpg&lt;/a&gt;\n","torrent":{"xt":"urn:btih:080b9024382bace919c9e470325a7f73050b3ada","amp;dn":"American.Hustle.2013.BRRip.XviD.AC3-TODE","amp;tr":["udp%3A%2F%2Ftracker.openbittorrent.com%3A80","udp%3A%2F%2Fopen.demonii.com%3A1337","udp%3A%2F%2Ftracker.coppersurfer.tk%3A6969","udp%3A%2F%2Fexodus.desync.com%3A6969"],"infoHash":"080b9024382bace919c9e470325a7f73050b3ada","infoHashBuffer":{"type":"Buffer","data":[8,11,144,36,56,43,172,233,25,201,228,112,50,90,127,115,5,11,58,218]},"announce":[],"urlList":[]}}